# xmcd CD database file
#
# Track frame offsets:
#	150
#	9116
#	20844
#	30971
#	40931
#	54492
#	63590
#	76045
#	85728
#	95206
#	105268
#	114390
#
# Disc length: 1663 seconds
#
# Revision: 1
# Processed by: cddbd v1.5PL3 Copyright (c) Steve Scherf et al.
# Submitted via: CDex 1.51
#
DISCID=82067d0c
DTITLE=Pee Wee Hunt - Plays Cole Porter
DYEAR=1963
DGENRE=Jazz
TTITLE0=I Love Paris
TTITLE1=What Is This Called Love?
TTITLE2=Don't Fence Me In
TTITLE3=It's All Right With Me
TTITLE4=Miss Otis Regrets
TTITLE5=It's De Lovely
TTITLE6=Beguin The Beguine
TTITLE7=Easy To Love
TTITLE8=Night And Day
TTITLE9=Love For Sale
TTITLE10=I've Got You Under My Skin
TTITLE11=Anything Goes
EXTD=YEAR: 1963
EXTT0=
EXTT1=
EXTT2=
EXTT3=
EXTT4=
EXTT5=
EXTT6=
EXTT7=
EXTT8=
EXTT9=
EXTT10=
EXTT11=
PLAYORDER=
